<svg width="187" height="210" viewBox="0 0 187 210" fill="none" xmlns="http://www.w3.org/2000/svg">
<rect x="80" y="110" width="26" height="100" rx="3" fill="#5C4322"/>
<path d="M91.7284 119.296C92.7834 118.524 94.2166 118.524 95.2716 119.296L167.065 171.829C169.406 173.542 168.194 177.25 165.293 177.25H21.7068C18.8058 177.25 17.5941 173.542 19.9353 171.829L91.7284 119.296Z" fill="#00463A"/>
<path d="M90.9355 86.9582C92.0929 85.8604 93.9071 85.8604 95.0645 86.9582L160.288 148.823C162.255 150.689 160.935 154 158.224 154H27.7761C25.065 154 23.7445 150.689 25.7115 148.823L90.9355 86.9582Z" fill="#00463A"/>
<path d="M91.0516 73.6643C92.1737 72.7058 93.8263 72.7058 94.9484 73.6643L150.037 120.719C152.157 122.529 150.876 126 148.089 126H37.9114C35.1236 126 33.8432 122.529 35.963 120.719L91.0516 73.6643Z" fill="#00463A"/>
<path d="M90.9666 53.8746C92.1153 52.8156 93.8847 52.8156 95.0334 53.8746L141.047 96.2943C143.055 98.146 141.745 101.5 139.013 101.5H46.9866C44.2547 101.5 42.9446 98.146 44.9531 96.2943L90.9666 53.8746Z" fill="#00463A"/>
<path d="M90.742 29.5812C91.9373 28.2149 94.0627 28.2149 95.258 29.5812L131.949 71.5248C133.646 73.4646 132.268 76.5 129.691 76.5H56.3089C53.7316 76.5 52.354 73.4646 54.0509 71.5248L90.742 29.5812Z" fill="#00463A"/>
<path d="M91.0522 3.45459C92.2478 1.76716 94.7522 1.76716 95.9478 3.45459L125.219 44.7656C126.627 46.7523 125.206 49.5 122.772 49.5H64.2284C61.7935 49.5 60.3729 46.7523 61.7806 44.7656L91.0522 3.45459Z" fill="#00463A"/>
</svg>
